<?xml version="1.0" standalone="no"?>
<!DOCTYPE svg PUBLIC "-//W3C//DTD SVG 20010904//EN"
 "http://www.w3.org/TR/2001/REC-SVG-20010904/DTD/svg10.dtd">
<svg version="1.0" xmlns="http://www.w3.org/2000/svg"
 width="1080.000000pt" height="1080.000000pt" viewBox="0 0 1080.000000 1080.000000"
 preserveAspectRatio="xMidYMid meet">
<metadata>
Created by potrace 1.14, written by Peter Selinger 2001-2017
</metadata>
<g transform="translate(0.000000,1080.000000) scale(0.100000,-0.100000)"
fill="#000000" stroke="none">
<path d="M1569 9908 l-1186 -892 8 -40 c4 -23 10 -80 14 -128 l7 -87 961 723
c529 397 1139 856 1356 1019 l393 297 -183 0 -184 0 -1186 -892z"/>
<path d="M2872 9780 c-744 -560 -1354 -1022 -1354 -1027 0 -4 50 -29 111 -55
l112 -47 517 388 c1153 865 2308 1734 2322 1747 12 12 -12 14 -170 13 l-185 0
-1353 -1019z"/>
<path d="M650 9634 l-645 -486 -3 -140 c-1 -77 1 -137 5 -135 5 3 365 273 802
601 656 492 789 596 769 600 -71 16 -242 46 -261 46 -13 -1 -281 -195 -667
-486z"/>
<path d="M4090 7379 c-98 -19 -101 -21 -800 -424 -135 -78 -353 -204 -485
-280 -132 -76 -368 -212 -525 -302 -157 -91 -391 -226 -520 -301 -206 -119
-244 -145 -310 -211 -253 -255 -255 -664 -5 -917 75 -76 68 -71 585 -369 151
-87 358 -206 460 -265 102 -59 352 -203 555 -320 204 -117 481 -278 616 -356
349 -202 391 -219 564 -218 123 0 185 14 295 67 170 82 306 258 346 447 22
102 14 250 -18 346 -43 129 -136 256 -239 325 -30 20 -198 120 -374 221 -176
101 -472 272 -657 379 -186 107 -338 196 -338 199 0 3 120 75 268 160 147 84
353 203 457 263 105 61 282 163 395 228 113 65 233 138 267 163 240 174 322
522 190 806 -82 177 -272 323 -468 360 -62 12 -196 11 -259 -1z"/>
<path d="M6375 7375 c-266 -59 -477 -293 -504 -562 -23 -223 51 -423 208 -564
35 -32 140 -100 258 -168 109 -63 223 -129 253 -147 30 -17 168 -97 305 -176
311 -180 566 -328 805 -469 102 -60 196 -115 210 -123 14 -7 54 -30 90 -51 36
-20 81 -46 100 -57 19 -11 121 -70 225 -131 229 -133 269 -152 363 -172 241
-50 488 35 645 223 224 267 203 651 -48 896 -51 50 -124 97 -391 250 -641 370
-830 478 -894 516 -36 21 -270 156 -520 300 -250 144 -500 288 -555 321 -56
32 -128 70 -162 83 -111 46 -267 58 -388 31z"/>
<path d="M9915 2468 c-2351 -1767 -3190 -2400 -3193 -2408 -2 -5 5 -21 15 -34
18 -25 21 -25 143 -26 l126 0 1284 966 c707 532 1561 1174 1898 1427 l612 459
0 139 c0 77 -1 139 -2 139 -2 0 -399 -298 -883 -662z"/>
<path d="M7506 1072 l-1418 -1067 181 -3 181 -2 1353 1017 c744 560 1354 1022
1356 1028 3 10 -193 95 -218 94 -9 0 -654 -480 -1435 -1067z"/>
<path d="M9945 1381 c-467 -352 -849 -643 -848 -647 2 -9 219 -53 263 -54 17
0 233 157 732 533 l708 532 0 138 c0 75 -1 137 -2 137 -2 0 -385 -288 -853
-639z"/>
</g>
</svg>
